<svg xmlns="http://www.w3.org/2000/svg" xmlns:xlink="http://www.w3.org/1999/xlink" version="1.1" data-diagram-type="SEQUENCE" style="width:597px;height:714px;background:#FFFFFF;" width="597px" height="714px" viewBox="0 0 597 714" zoomAndPan="magnify" preserveAspectRatio="none" contentStyleType="text/css"><?plantuml 1.2026.8?><defs/><g font-family="sans-serif" lengthAdjust="spacing"><rect x="251.257" y="303.102" width="325.92" height="169.734" fill="none" style="stroke:#9CB1BA;stroke-width:1.5;"/><g><title>ESP1</title><rect x="70.513" y="44.789" width="8" height="658.57" fill="#000" fill-opacity="0"/><line x1="74.013" y1="44.789" x2="74.013" y2="703.359" style="stroke:#9CB1BA;stroke-width:0.5;stroke-dasharray:5,5;"/></g><g><title>ESP2</title><rect x="263.757" y="44.789" width="8" height="658.57" fill="#000" fill-opacity="0"/><line x1="267.257" y1="44.789" x2="267.257" y2="703.359" style="stroke:#9CB1BA;stroke-width:0.5;stroke-dasharray:5,5;"/></g><rect x="45.713" y="10" width="56.6" height="33.789" fill="#EAF5F5" style="stroke:#3B6879;stroke-width:0.5;" rx="2.5" ry="2.5"/><text x="52.713" y="32.78" fill="#000" font-size="17" textLength="42.6" font-family="DejaVu Sans">ESP1</text><rect x="238.958" y="10" width="56.6" height="33.789" fill="#EAF5F5" style="stroke:#3B6879;stroke-width:0.5;" rx="2.5" ry="2.5"/><text x="245.958" y="32.78" fill="#000" font-size="17" textLength="42.6" font-family="DejaVu Sans">ESP2</text><path d="M15,57.789 L15,126.789 L326,126.789 L326,67.789 L316,57.789 L15,57.789" style="stroke:#181818;stroke-width:0.5;" fill="#FEFFDD"/><path d="M316,57.789 L316,67.789 L326,67.789 L316,57.789" style="stroke:#181818;stroke-width:0.5;" fill="#FEFFDD"/><text x="21" y="78.569" fill="#000" font-size="17" textLength="277.055" font-family="DejaVu Sans">Sensores y microSD disponibles.</text><text x="21" y="98.358" fill="#000" font-size="17" textLength="276.375" font-family="DejaVu Sans">Recepción ESP-NOW y muestreo</text><text x="21" y="118.147" fill="#000" font-size="17" textLength="290.27" font-family="DejaVu Sans">local independientes y periódicos.</text><line x1="74.013" y1="177.734" x2="116.013" y2="177.734" style="stroke:#315D70;stroke-width:1;"/><line x1="116.013" y1="177.734" x2="116.013" y2="190.734" style="stroke:#315D70;stroke-width:1;"/><line x1="75.013" y1="190.734" x2="116.013" y2="190.734" style="stroke:#315D70;stroke-width:1;"/><polygon points="85.013,186.734,75.013,190.734,85.013,194.734,81.013,190.734" fill="#315D70" style="stroke:#315D70;stroke-width:1;stroke-linejoin:miter;stroke-miterlimit:10;"/><text x="81.013" y="151.936" fill="#000" font-size="17" textLength="47.63" font-family="DejaVu Sans">Medir</text><text x="128.643" y="151.936" fill="#000" font-size="17" font-family="DejaVu Sans"> </text><text x="134.046" y="151.936" fill="#000" font-size="17" textLength="62.854" font-family="DejaVu Sans">voltaje,</text><text x="196.9" y="151.936" fill="#000" font-size="17" font-family="DejaVu Sans"> </text><text x="202.304" y="151.936" fill="#000" font-size="17" textLength="36.731" font-family="DejaVu Sans">RPM</text><text x="239.035" y="151.936" fill="#000" font-size="17" font-family="DejaVu Sans"> </text><text x="244.438" y="151.936" fill="#000" font-size="17" font-family="DejaVu Sans">y</text><text x="81.013" y="171.725" fill="#000" font-size="17" textLength="34.216" font-family="DejaVu Sans">GPS</text><line x1="265.257" y1="224.523" x2="255.257" y2="220.523" style="stroke:#315D70;stroke-width:1;"/><line x1="265.257" y1="224.523" x2="255.257" y2="228.523" style="stroke:#315D70;stroke-width:1;"/><line x1="74.013" y1="224.523" x2="266.257" y2="224.523" style="stroke:#315D70;stroke-width:1;"/><text x="81.013" y="218.514" fill="#000" font-size="17" textLength="49.431" font-family="DejaVu Sans">Datos</text><text x="130.444" y="218.514" fill="#000" font-size="17" font-family="DejaVu Sans"> </text><text x="135.848" y="218.514" fill="#000" font-size="17" textLength="28.181" font-family="DejaVu Sans">por</text><text x="164.029" y="218.514" fill="#000" font-size="17" font-family="DejaVu Sans"> </text><text x="169.433" y="218.514" fill="#000" font-size="17" textLength="80.825" font-family="DejaVu Sans">ESP-NOW</text><line x1="267.257" y1="278.102" x2="309.257" y2="278.102" style="stroke:#315D70;stroke-width:1;"/><line x1="309.257" y1="278.102" x2="309.257" y2="291.102" style="stroke:#315D70;stroke-width:1;"/><line x1="268.257" y1="291.102" x2="309.257" y2="291.102" style="stroke:#315D70;stroke-width:1;"/><polygon points="278.257,287.102,268.257,291.102,278.257,295.102,274.257,291.102" fill="#315D70" style="stroke:#315D70;stroke-width:1;stroke-linejoin:miter;stroke-miterlimit:10;"/><text x="274.257" y="252.303" fill="#000" font-size="17" textLength="84.61" font-family="DejaVu Sans">Actualizar</text><text x="358.867" y="252.303" fill="#000" font-size="17" font-family="DejaVu Sans"> </text><text x="364.271" y="252.303" fill="#000" font-size="17" textLength="72.599" font-family="DejaVu Sans">medidas</text><text x="274.257" y="272.092" fill="#000" font-size="17" textLength="70.349" font-family="DejaVu Sans">remotas</text><path d="M251.257,303.102 L337.612,303.102 L337.612,314.891 L327.612,324.891 L251.257,324.891 L251.257,303.102" style="stroke:#9CB1BA;stroke-width:1.5;" fill="#F7FAFB"/><rect x="251.257" y="303.102" width="325.92" height="169.734" fill="none" style="stroke:#9CB1BA;stroke-width:1.5;"/><text x="266.257" y="319.881" fill="#000" font-size="17" textLength="41.354" font-weight="700" font-family="DejaVu Sans">loop</text><text x="352.612" y="320.881" fill="#000" font-size="17" textLength="208.565" font-weight="700" font-family="DejaVu Sans">[10 muestras válidas]</text><line x1="267.257" y1="385.258" x2="309.257" y2="385.258" style="stroke:#315D70;stroke-width:1;"/><line x1="309.257" y1="385.258" x2="309.257" y2="398.258" style="stroke:#315D70;stroke-width:1;"/><line x1="268.257" y1="398.258" x2="309.257" y2="398.258" style="stroke:#315D70;stroke-width:1;"/><polygon points="278.257,394.258,268.257,398.258,278.257,402.258,274.257,398.258" fill="#315D70" style="stroke:#315D70;stroke-width:1;stroke-linejoin:miter;stroke-miterlimit:10;"/><text x="274.257" y="359.459" fill="#000" font-size="17" textLength="37.378" font-family="DejaVu Sans">Leer</text><text x="311.636" y="359.459" fill="#000" font-size="17" font-family="DejaVu Sans"> </text><text x="317.04" y="359.459" fill="#000" font-size="17" textLength="75.653" font-family="DejaVu Sans">sensores</text><text x="392.693" y="359.459" fill="#000" font-size="17" font-family="DejaVu Sans"> </text><text x="398.097" y="359.459" fill="#000" font-size="17" font-family="DejaVu Sans">y</text><text x="408.157" y="359.459" fill="#000" font-size="17" font-family="DejaVu Sans"> </text><text x="413.561" y="359.459" fill="#000" font-size="17" textLength="39.794" font-family="DejaVu Sans">RTC;</text><text x="274.257" y="379.249" fill="#000" font-size="17" textLength="67.809" font-family="DejaVu Sans">integrar</text><text x="342.066" y="379.249" fill="#000" font-size="17" font-family="DejaVu Sans"> </text><text x="347.47" y="379.249" fill="#000" font-size="17" textLength="47.132" font-family="DejaVu Sans">datos</text><line x1="267.257" y1="451.836" x2="309.257" y2="451.836" style="stroke:#315D70;stroke-width:1;"/><line x1="309.257" y1="451.836" x2="309.257" y2="464.836" style="stroke:#315D70;stroke-width:1;"/><line x1="268.257" y1="464.836" x2="309.257" y2="464.836" style="stroke:#315D70;stroke-width:1;"/><polygon points="278.257,460.836,268.257,464.836,278.257,468.836,274.257,464.836" fill="#315D70" style="stroke:#315D70;stroke-width:1;stroke-linejoin:miter;stroke-miterlimit:10;"/><text x="274.257" y="426.038" fill="#000" font-size="17" textLength="77.704" font-family="DejaVu Sans">Registrar</text><text x="351.961" y="426.038" fill="#000" font-size="17" font-family="DejaVu Sans"> </text><text x="357.365" y="426.038" fill="#000" font-size="17" textLength="70.723" font-family="DejaVu Sans">muestra</text><text x="274.257" y="445.827" fill="#000" font-size="17" textLength="21.233" font-family="DejaVu Sans">en</text><text x="295.491" y="445.827" fill="#000" font-size="17" font-family="DejaVu Sans"> </text><text x="300.895" y="445.827" fill="#000" font-size="17" textLength="71.901" font-family="DejaVu Sans">microSD</text><line x1="267.257" y1="532.414" x2="309.257" y2="532.414" style="stroke:#315D70;stroke-width:1;"/><line x1="309.257" y1="532.414" x2="309.257" y2="545.414" style="stroke:#315D70;stroke-width:1;"/><line x1="268.257" y1="545.414" x2="309.257" y2="545.414" style="stroke:#315D70;stroke-width:1;"/><polygon points="278.257,541.414,268.257,545.414,278.257,549.414,274.257,545.414" fill="#315D70" style="stroke:#315D70;stroke-width:1;stroke-linejoin:miter;stroke-miterlimit:10;"/><text x="274.257" y="506.616" fill="#000" font-size="17" textLength="87.582" font-family="DejaVu Sans">Promediar</text><text x="361.839" y="506.616" fill="#000" font-size="17" font-family="DejaVu Sans"> </text><text x="367.243" y="506.616" fill="#000" font-size="17" font-family="DejaVu Sans">y</text><text x="274.257" y="526.405" fill="#000" font-size="17" textLength="75.521" font-family="DejaVu Sans">construir</text><text x="349.778" y="526.405" fill="#000" font-size="17" font-family="DejaVu Sans"> </text><text x="355.182" y="526.405" fill="#000" font-size="17" textLength="41.902" font-family="DejaVu Sans">JSON</text><polygon points="574.177,594.992,584.177,598.992,574.177,602.992,578.177,598.992" fill="#315D70" style="stroke:#315D70;stroke-width:1;stroke-linejoin:miter;stroke-miterlimit:10;"/><line x1="267.257" y1="598.992" x2="580.177" y2="598.992" style="stroke:#315D70;stroke-width:1;"/><text x="274.257" y="573.194" fill="#000" font-size="17" textLength="41.902" font-family="DejaVu Sans">JSON</text><text x="316.16" y="573.194" fill="#000" font-size="17" font-family="DejaVu Sans"> </text><text x="321.563" y="573.194" fill="#000" font-size="17" textLength="28.181" font-family="DejaVu Sans">por</text><text x="349.745" y="573.194" fill="#000" font-size="17" font-family="DejaVu Sans"> </text><text x="355.148" y="573.194" fill="#000" font-size="17" textLength="46.269" font-family="DejaVu Sans">UART</text><text x="401.417" y="573.194" fill="#000" font-size="17" font-family="DejaVu Sans"> </text><text x="406.821" y="573.194" fill="#000" font-size="17" font-family="DejaVu Sans">a</text><text x="274.257" y="592.983" fill="#000" font-size="17" textLength="42.6" font-family="DejaVu Sans">ESP3</text><text x="316.857" y="592.983" fill="#000" font-size="17" font-family="DejaVu Sans"> </text><text x="322.261" y="592.983" fill="#000" font-size="17" textLength="53.797" font-family="DejaVu Sans">(panel</text><text x="376.058" y="592.983" fill="#000" font-size="17" font-family="DejaVu Sans"> </text><text x="381.462" y="592.983" fill="#000" font-size="17" textLength="18.295" font-family="DejaVu Sans">B)</text><line x1="267.257" y1="672.359" x2="309.257" y2="672.359" style="stroke:#315D70;stroke-width:1;"/><line x1="309.257" y1="672.359" x2="309.257" y2="685.359" style="stroke:#315D70;stroke-width:1;"/><line x1="268.257" y1="685.359" x2="309.257" y2="685.359" style="stroke:#315D70;stroke-width:1;"/><polygon points="278.257,681.359,268.257,685.359,278.257,689.359,274.257,685.359" fill="#315D70" style="stroke:#315D70;stroke-width:1;stroke-linejoin:miter;stroke-miterlimit:10;"/><text x="274.257" y="626.772" fill="#000" font-size="17" textLength="73.968" font-family="DejaVu Sans">Reiniciar</text><text x="274.257" y="646.561" fill="#000" font-size="17" textLength="120.511" font-family="DejaVu Sans">acumuladores</text><text x="394.768" y="646.561" fill="#000" font-size="17" font-family="DejaVu Sans"> </text><text x="400.172" y="646.561" fill="#000" font-size="17" font-family="DejaVu Sans">y</text><text x="274.257" y="666.35" fill="#000" font-size="17" textLength="62.712" font-family="DejaVu Sans">archivo</text><text x="336.97" y="666.35" fill="#000" font-size="17" font-family="DejaVu Sans"> </text><text x="342.374" y="666.35" fill="#000" font-size="17" textLength="25.973" font-family="DejaVu Sans">del</text><text x="368.347" y="666.35" fill="#000" font-size="17" font-family="DejaVu Sans"> </text><text x="373.75" y="666.35" fill="#000" font-size="17" textLength="32.249" font-family="DejaVu Sans">lote</text><?plantuml-src XPF1Jjj048RlVeeHN5g9L75G6cYbIdOI8rKaH35jJpriTYV9mdh7tLqdmDlm37q4NgnZJ8efQNlmOJtV_F_yirf_hMqfd2XW8UJrob5brP0CETYkTS38_wuhN8hAX8nic8e2OOHNuci5kR1-FvNhEuHuq2hwjL2qrNO5Is5yMpnnZhQDx-5nt1yDkkqs_56XbJWJBcYfIs53-iUmX-CawsVz_pIHK-XsBkdxay7fdePplUJFuWlwT9Z6QRA7FkCXobVJP8CioTA_ulzKBiJD1BqNAsmMUDADrbeXB8d2WcwYyZaG78ppMNm0miCuVbNeDOLUP2aWq0OTKqTypj5wSkZX5Wej7UKZKDgNPFN2e7yNpL5YAVN3JmiiqvbUVAl92drmI94XAGnegx14gpJQyAXKekCEfIMn0XUWTet6CNG-iIryW0agxM139eWhF8BvRC9TPxEyOHZgCJGIWJoKl9WdvuX_TvwAYGoLCFfEE2XOJ74wXmK5uNaeAY7kFat9XSt3lQc9TlyvyWhyS_ZvvV0Z1mcuSYofQkisFiULhiNSJXNGxXPM9sopCqVrICpUWYJBTCLXF-SNquRwpanzUeps9PbVWgWJ7iCRlYuqaBvzwQmjtoIh2LaLbU5Nqqmid5ph3V4hCs1ulxy0?></g></svg>